<?xml version="1.0" standalone="no"?>
<!DOCTYPE svg PUBLIC "-//W3C//DTD SVG 20010904//EN"
 "http://www.w3.org/TR/2001/REC-SVG-20010904/DTD/svg10.dtd">
<svg version="1.0" xmlns="http://www.w3.org/2000/svg"
 width="260.000000pt" height="260.000000pt" viewBox="0 0 260.000000 260.000000"
 preserveAspectRatio="xMidYMid meet">
<metadata>
Created by potrace 1.14, written by Peter Selinger 2001-2017
</metadata>
<g transform="translate(0.000000,260.000000) scale(0.100000,-0.100000)"
fill="#000000" stroke="none">
<path d="M1301 2179 c-18 -11 -55 -42 -81 -69 l-47 -48 -90 34 c-114 42 -214
58 -323 50 -307 -21 -530 -174 -530 -363 0 -128 113 -226 239 -209 88 12 175
88 183 160 4 40 -19 44 -27 5 -8 -37 -66 -104 -109 -126 -36 -19 -125 -12
-162 12 -93 61 -80 199 29 314 58 60 132 106 224 138 67 23 94 27 198 27 93 1
133 -3 175 -18 60 -21 150 -63 150 -71 0 -3 -18 -29 -40 -57 -50 -62 -91 -132
-219 -372 -99 -184 -180 -313 -224 -354 l-23 -22 -98 49 c-53 27 -122 55 -153
61 -135 28 -233 -25 -233 -125 0 -30 8 -45 38 -75 81 -81 266 -79 402 5 l56
34 72 -26 73 -26 -32 -15 c-74 -36 -123 -150 -123 -283 0 -72 4 -94 27 -141
74 -151 238 -232 472 -232 247 0 421 85 540 264 53 79 84 150 160 364 73 206
139 340 163 331 125 -51 314 -91 383 -82 58 8 89 31 89 67 0 17 -4 30 -10 30
-5 0 -10 -6 -10 -14 0 -41 -74 -56 -181 -36 -77 14 -259 63 -259 70 0 12 48
52 66 54 22 3 32 36 12 36 -8 0 -39 -18 -68 -40 -29 -22 -55 -40 -57 -40 -2 0
-51 16 -107 35 -128 42 -251 75 -285 75 -40 0 -47 10 -65 89 -30 134 -112 265
-218 346 l-46 36 34 58 c19 32 46 69 59 81 44 42 30 52 -24 19z m47 -380 c36
-64 72 -167 72 -208 0 -28 -3 -29 -60 -39 -140 -25 -267 -120 -304 -228 -20
-60 -21 -144 -1 -191 l15 -36 -82 7 c-95 7 -179 25 -261 56 l-57 22 56 61 c64
71 176 237 323 480 55 92 113 186 127 209 l27 42 57 -61 c31 -33 71 -85 88
-114z m354 -324 c70 -12 216 -51 226 -60 1 -1 -33 -78 -76 -171 -181 -387
-246 -497 -353 -598 -184 -174 -442 -215 -651 -104 -71 37 -122 92 -155 165
-22 49 -25 65 -21 141 5 98 19 133 74 183 20 19 45 41 54 50 15 14 24 15 81 3
35 -7 97 -16 138 -20 58 -6 85 -14 124 -38 43 -26 60 -31 116 -31 54 0 74 5
114 28 54 32 95 87 104 141 8 48 -9 46 -32 -4 -20 -44 -81 -105 -121 -120 -38
-15 -100 -12 -142 6 l-37 16 66 23 c168 58 267 171 292 335 l11 70 52 0 c28 0
89 -7 136 -15z m-277 -42 c-10 -74 -68 -185 -121 -232 -50 -44 -140 -91 -173
-91 -30 0 -38 59 -17 127 31 99 139 199 251 232 62 19 67 16 60 -36z m-942
-197 c53 -24 97 -49 97 -54 0 -28 -155 -82 -238 -82 -48 0 -58 4 -88 34 -19
19 -34 44 -34 55 0 29 25 77 47 91 33 20 114 4 216 -44z"/>
</g>
</svg>
